<?xml version="1.0" encoding="UTF-8" standalone="no"?>
<!DOCTYPE svg PUBLIC "-//W3C//DTD SVG 1.1//EN"
 "http://www.w3.org/Graphics/SVG/1.1/DTD/svg11.dtd">
<!-- Generated by graphviz version 2.47.0 (20210316.0004)
 -->
<!-- Title: dependencies Pages: 1 -->
<svg width="992pt" height="284pt"
 viewBox="0.00 0.00 992.00 284.00" xmlns="http://www.w3.org/2000/svg" xmlns:xlink="http://www.w3.org/1999/xlink">
<g id="graph0" class="graph" transform="scale(1 1) rotate(0) translate(4 280)">
<title>dependencies</title>
<polygon fill="white" stroke="transparent" points="-4,4 -4,-280 988,-280 988,4 -4,4"/>
<text text-anchor="start" x="471.01" y="-42.4" font-family="Times-12" font-weight="bold" font-size="14.00">Legend</text>
<polygon fill="#ffffb3" stroke="transparent" points="258,-10 258,-30 278,-30 278,-10 258,-10"/>
<text text-anchor="start" x="281.63" y="-15.4" font-family="Times-12" font-size="14.00"> &#160;Declarations</text>
<polygon fill="#8dd3c7" stroke="transparent" points="371,-10 371,-30 391,-30 391,-10 371,-10"/>
<text text-anchor="start" x="394.73" y="-15.4" font-family="Times-12" font-size="14.00"> &#160;Module</text>
<polygon fill="#80b1d3" stroke="transparent" points="457,-10 457,-30 477,-30 477,-10 457,-10"/>
<text text-anchor="start" x="480.78" y="-15.4" font-family="Times-12" font-size="14.00"> &#160;Bootstrap</text>
<polygon fill="#fdb462" stroke="transparent" points="554,-10 554,-30 574,-30 574,-10 554,-10"/>
<text text-anchor="start" x="577.67" y="-15.4" font-family="Times-12" font-size="14.00"> &#160;Providers</text>
<polygon fill="#fb8072" stroke="transparent" points="650,-10 650,-30 670,-30 670,-10 650,-10"/>
<text text-anchor="start" x="673.73" y="-15.4" font-family="Times-12" font-size="14.00"> &#160;Exports</text>
<g id="clust1" class="cluster">
<title>cluster_AuthModule</title>
<polygon fill="none" stroke="black" stroke-dasharray="1,5" points="8,-70 8,-268 976,-268 976,-70 8,-70"/>
</g>
<g id="clust3" class="cluster">
<title>cluster_AuthModule_imports</title>
<polygon fill="none" stroke="black" points="698,-78 698,-130 968,-130 968,-78 698,-78"/>
</g>
<g id="clust4" class="cluster">
<title>cluster_AuthModule_exports</title>
<polygon fill="none" stroke="black" points="481,-208 481,-260 587,-260 587,-208 481,-208"/>
</g>
<g id="clust6" class="cluster">
<title>cluster_AuthModule_providers</title>
<polygon fill="none" stroke="black" points="16,-78 16,-130 690,-130 690,-78 16,-78"/>
</g>
<!-- CommunicationModule -->
<g id="node1" class="node">
<title>CommunicationModule</title>
<polygon fill="#8dd3c7" stroke="black" points="959.77,-122 956.77,-126 935.77,-126 932.77,-122 810.23,-122 810.23,-86 959.77,-86 959.77,-122"/>
<text text-anchor="middle" x="885" y="-99.8" font-family="Times,serif" font-size="14.00">CommunicationModule</text>
</g>
<!-- AuthModule -->
<g id="node3" class="node">
<title>AuthModule</title>
<polygon fill="#8dd3c7" stroke="black" points="577.55,-187 574.55,-191 553.55,-191 550.55,-187 490.45,-187 490.45,-151 577.55,-151 577.55,-187"/>
<text text-anchor="middle" x="534" y="-164.8" font-family="Times,serif" font-size="14.00">AuthModule</text>
</g>
<!-- CommunicationModule&#45;&gt;AuthModule -->
<g id="edge1" class="edge">
<title>CommunicationModule&#45;&gt;AuthModule</title>
<path fill="none" stroke="black" d="M885,-122.28C885,-143.32 885,-175 885,-175 885,-175 587.74,-175 587.74,-175"/>
<polygon fill="black" stroke="black" points="587.74,-171.5 577.74,-175 587.74,-178.5 587.74,-171.5"/>
</g>
<!-- UserModule -->
<g id="node2" class="node">
<title>UserModule</title>
<polygon fill="#8dd3c7" stroke="black" points="791.98,-122 788.98,-126 767.98,-126 764.98,-122 706.02,-122 706.02,-86 791.98,-86 791.98,-122"/>
<text text-anchor="middle" x="749" y="-99.8" font-family="Times,serif" font-size="14.00">UserModule</text>
</g>
<!-- UserModule&#45;&gt;AuthModule -->
<g id="edge2" class="edge">
<title>UserModule&#45;&gt;AuthModule</title>
<path fill="none" stroke="black" d="M749,-122.02C749,-139.37 749,-163 749,-163 749,-163 587.77,-163 587.77,-163"/>
<polygon fill="black" stroke="black" points="587.77,-159.5 577.77,-163 587.77,-166.5 587.77,-159.5"/>
</g>
<!-- AuthService  -->
<g id="node4" class="node">
<title>AuthService </title>
<polygon fill="#fb8072" stroke="black" points="578.98,-252 489.02,-252 489.02,-216 578.98,-216 578.98,-252"/>
<text text-anchor="middle" x="534" y="-229.8" font-family="Times,serif" font-size="14.00">AuthService </text>
</g>
<!-- AuthModule&#45;&gt;AuthService  -->
<g id="edge3" class="edge">
<title>AuthModule&#45;&gt;AuthService </title>
<path fill="none" stroke="black" stroke-dasharray="5,2" d="M534,-187.11C534,-187.11 534,-205.99 534,-205.99"/>
<polygon fill="black" stroke="black" points="530.5,-205.99 534,-215.99 537.5,-205.99 530.5,-205.99"/>
</g>
<!-- AuthService -->
<g id="node5" class="node">
<title>AuthService</title>
<ellipse fill="#fdb462" stroke="black" cx="623" cy="-104" rx="59.11" ry="18"/>
<text text-anchor="middle" x="623" y="-99.8" font-family="Times,serif" font-size="14.00">AuthService</text>
</g>
<!-- AuthService&#45;&gt;AuthModule -->
<g id="edge4" class="edge">
<title>AuthService&#45;&gt;AuthModule</title>
<path fill="none" stroke="black" d="M570.73,-112.77C570.73,-112.77 570.73,-140.8 570.73,-140.8"/>
<polygon fill="black" stroke="black" points="567.23,-140.8 570.73,-150.8 574.23,-140.8 567.23,-140.8"/>
</g>
<!-- JwtMagicLinkStrategy -->
<g id="node6" class="node">
<title>JwtMagicLinkStrategy</title>
<ellipse fill="#fdb462" stroke="black" cx="446" cy="-104" rx="99.58" ry="18"/>
<text text-anchor="middle" x="446" y="-99.8" font-family="Times,serif" font-size="14.00">JwtMagicLinkStrategy</text>
</g>
<!-- JwtMagicLinkStrategy&#45;&gt;AuthModule -->
<g id="edge5" class="edge">
<title>JwtMagicLinkStrategy&#45;&gt;AuthModule</title>
<path fill="none" stroke="black" d="M517.88,-116.53C517.88,-116.53 517.88,-140.85 517.88,-140.85"/>
<polygon fill="black" stroke="black" points="514.38,-140.85 517.88,-150.85 521.38,-140.85 514.38,-140.85"/>
</g>
<!-- JwtRefreshStrategy -->
<g id="node7" class="node">
<title>JwtRefreshStrategy</title>
<ellipse fill="#fdb462" stroke="black" cx="242" cy="-104" rx="86.81" ry="18"/>
<text text-anchor="middle" x="242" y="-99.8" font-family="Times,serif" font-size="14.00">JwtRefreshStrategy</text>
</g>
<!-- JwtRefreshStrategy&#45;&gt;AuthModule -->
<g id="edge6" class="edge">
<title>JwtRefreshStrategy&#45;&gt;AuthModule</title>
<path fill="none" stroke="black" d="M242,-122.02C242,-139.37 242,-163 242,-163 242,-163 480.28,-163 480.28,-163"/>
<polygon fill="black" stroke="black" points="480.28,-166.5 490.28,-163 480.28,-159.5 480.28,-166.5"/>
</g>
<!-- JwtStrategy -->
<g id="node8" class="node">
<title>JwtStrategy</title>
<ellipse fill="#fdb462" stroke="black" cx="81" cy="-104" rx="56.76" ry="18"/>
<text text-anchor="middle" x="81" y="-99.8" font-family="Times,serif" font-size="14.00">JwtStrategy</text>
</g>
<!-- JwtStrategy&#45;&gt;AuthModule -->
<g id="edge7" class="edge">
<title>JwtStrategy&#45;&gt;AuthModule</title>
<path fill="none" stroke="black" d="M81,-122.28C81,-143.32 81,-175 81,-175 81,-175 480.15,-175 480.15,-175"/>
<polygon fill="black" stroke="black" points="480.15,-178.5 490.15,-175 480.15,-171.5 480.15,-178.5"/>
</g>
</g>
</svg>
