<?xml version="1.0" encoding="UTF-8" standalone="no"?>
<!DOCTYPE svg PUBLIC "-//W3C//DTD SVG 1.1//EN"
 "http://www.w3.org/Graphics/SVG/1.1/DTD/svg11.dtd">
<!-- Generated by graphviz version 2.47.0 (20210316.0004)
 -->
<!-- Title: dependencies Pages: 1 -->
<svg width="1520pt" height="363pt"
 viewBox="0.00 0.00 1520.00 363.00" xmlns="http://www.w3.org/2000/svg" xmlns:xlink="http://www.w3.org/1999/xlink">
<g id="graph0" class="graph" transform="scale(1 1) rotate(0) translate(4 359)">
<title>dependencies</title>
<polygon fill="white" stroke="transparent" points="-4,4 -4,-359 1516,-359 1516,4 -4,4"/>
<text text-anchor="start" x="735.01" y="-42.4" font-family="Times-12" font-weight="bold" font-size="14.00">Legend</text>
<polygon fill="#ffffb3" stroke="transparent" points="522,-10 522,-30 542,-30 542,-10 522,-10"/>
<text text-anchor="start" x="545.63" y="-15.4" font-family="Times-12" font-size="14.00"> &#160;Declarations</text>
<polygon fill="#8dd3c7" stroke="transparent" points="635,-10 635,-30 655,-30 655,-10 635,-10"/>
<text text-anchor="start" x="658.73" y="-15.4" font-family="Times-12" font-size="14.00"> &#160;Module</text>
<polygon fill="#80b1d3" stroke="transparent" points="721,-10 721,-30 741,-30 741,-10 721,-10"/>
<text text-anchor="start" x="744.78" y="-15.4" font-family="Times-12" font-size="14.00"> &#160;Bootstrap</text>
<polygon fill="#fdb462" stroke="transparent" points="818,-10 818,-30 838,-30 838,-10 818,-10"/>
<text text-anchor="start" x="841.67" y="-15.4" font-family="Times-12" font-size="14.00"> &#160;Providers</text>
<polygon fill="#fb8072" stroke="transparent" points="914,-10 914,-30 934,-30 934,-10 914,-10"/>
<text text-anchor="start" x="937.73" y="-15.4" font-family="Times-12" font-size="14.00"> &#160;Exports</text>
<g id="clust1" class="cluster">
<title>cluster_AppModule</title>
<polygon fill="none" stroke="black" stroke-dasharray="1,5" points="820,-146 820,-347 1220,-347 1220,-146 820,-146"/>
</g>
<g id="clust3" class="cluster">
<title>cluster_AppModule_imports</title>
<polygon fill="none" stroke="black" points="828,-154 828,-282 1212,-282 1212,-154 828,-154"/>
</g>
<g id="clust7" class="cluster">
<title>cluster_AuthModule</title>
<polygon fill="none" stroke="black" stroke-dasharray="1,5" points="8,-146 8,-214 812,-214 812,-146 8,-146"/>
</g>
<g id="clust10" class="cluster">
<title>cluster_AuthModule_exports</title>
<polygon fill="none" stroke="black" points="698,-154 698,-206 804,-206 804,-154 698,-154"/>
</g>
<g id="clust12" class="cluster">
<title>cluster_AuthModule_providers</title>
<polygon fill="none" stroke="black" points="16,-154 16,-206 690,-206 690,-154 16,-154"/>
</g>
<g id="clust13" class="cluster">
<title>cluster_CommunicationModule</title>
<polygon fill="none" stroke="black" stroke-dasharray="1,5" points="1228,-222 1228,-290 1504,-290 1504,-222 1228,-222"/>
</g>
<g id="clust16" class="cluster">
<title>cluster_CommunicationModule_exports</title>
<polygon fill="none" stroke="black" points="1386,-230 1386,-282 1496,-282 1496,-230 1386,-230"/>
</g>
<g id="clust18" class="cluster">
<title>cluster_CommunicationModule_providers</title>
<polygon fill="none" stroke="black" points="1236,-230 1236,-282 1378,-282 1378,-230 1236,-230"/>
</g>
<g id="clust25" class="cluster">
<title>cluster_UserModule</title>
<polygon fill="none" stroke="black" stroke-dasharray="1,5" points="584,-70 584,-138 1135,-138 1135,-70 584,-70"/>
</g>
<g id="clust28" class="cluster">
<title>cluster_UserModule_exports</title>
<polygon fill="none" stroke="black" points="1023,-78 1023,-130 1127,-130 1127,-78 1023,-78"/>
</g>
<g id="clust30" class="cluster">
<title>cluster_UserModule_providers</title>
<polygon fill="none" stroke="black" points="592,-78 592,-130 1015,-130 1015,-78 592,-78"/>
</g>
<!-- AuthModule -->
<g id="node1" class="node">
<title>AuthModule</title>
<polygon fill="#8dd3c7" stroke="black" points="923.55,-274 920.55,-278 899.55,-278 896.55,-274 836.45,-274 836.45,-238 923.55,-238 923.55,-274"/>
<text text-anchor="middle" x="880" y="-251.8" font-family="Times,serif" font-size="14.00">AuthModule</text>
</g>
<!-- AppModule -->
<g id="node5" class="node">
<title>AppModule</title>
<polygon fill="#8dd3c7" stroke="black" points="1009.66,-339 1006.66,-343 985.66,-343 982.66,-339 926.34,-339 926.34,-303 1009.66,-303 1009.66,-339"/>
<text text-anchor="middle" x="968" y="-316.8" font-family="Times,serif" font-size="14.00">AppModule</text>
</g>
<!-- AuthModule&#45;&gt;AppModule -->
<g id="edge1" class="edge">
<title>AuthModule&#45;&gt;AppModule</title>
<path fill="none" stroke="black" d="M923.6,-262C927.86,-262 930.64,-262 930.64,-262 930.64,-262 930.64,-292.98 930.64,-292.98"/>
<polygon fill="black" stroke="black" points="927.14,-292.98 930.64,-302.98 934.14,-292.98 927.14,-292.98"/>
</g>
<!-- AuthService  -->
<g id="node6" class="node">
<title>AuthService </title>
<polygon fill="#fb8072" stroke="black" points="795.98,-198 706.02,-198 706.02,-162 795.98,-162 795.98,-198"/>
<text text-anchor="middle" x="751" y="-175.8" font-family="Times,serif" font-size="14.00">AuthService </text>
</g>
<!-- AuthModule&#45;&gt;AuthService  -->
<g id="edge7" class="edge">
<title>AuthModule&#45;&gt;AuthService </title>
<path fill="none" stroke="black" stroke-dasharray="5,2" d="M836.33,-244C798.9,-244 751,-244 751,-244 751,-244 751,-208.17 751,-208.17"/>
<polygon fill="black" stroke="black" points="754.5,-208.17 751,-198.17 747.5,-208.17 754.5,-208.17"/>
</g>
<!-- CommunicationModule -->
<g id="node2" class="node">
<title>CommunicationModule</title>
<polygon fill="#8dd3c7" stroke="black" points="1203.77,-198 1200.77,-202 1179.77,-202 1176.77,-198 1054.23,-198 1054.23,-162 1203.77,-162 1203.77,-198"/>
<text text-anchor="middle" x="1129" y="-175.8" font-family="Times,serif" font-size="14.00">CommunicationModule</text>
</g>
<!-- CommunicationModule&#45;&gt;AuthModule -->
<g id="edge5" class="edge">
<title>CommunicationModule&#45;&gt;AuthModule</title>
<path fill="none" stroke="black" d="M1104.04,-198.03C1104.04,-218.77 1104.04,-250 1104.04,-250 1104.04,-250 933.73,-250 933.73,-250"/>
<polygon fill="black" stroke="black" points="933.73,-246.5 923.73,-250 933.73,-253.5 933.73,-246.5"/>
</g>
<!-- CommunicationModule&#45;&gt;AppModule -->
<g id="edge2" class="edge">
<title>CommunicationModule&#45;&gt;AppModule</title>
<path fill="none" stroke="black" d="M1153.96,-198.14C1153.96,-236.23 1153.96,-321 1153.96,-321 1153.96,-321 1019.73,-321 1019.73,-321"/>
<polygon fill="black" stroke="black" points="1019.73,-317.5 1009.73,-321 1019.73,-324.5 1019.73,-317.5"/>
</g>
<!-- EmailService  -->
<g id="node11" class="node">
<title>EmailService </title>
<polygon fill="#fb8072" stroke="black" points="1488.42,-274 1393.58,-274 1393.58,-238 1488.42,-238 1488.42,-274"/>
<text text-anchor="middle" x="1441" y="-251.8" font-family="Times,serif" font-size="14.00">EmailService </text>
</g>
<!-- CommunicationModule&#45;&gt;EmailService  -->
<g id="edge12" class="edge">
<title>CommunicationModule&#45;&gt;EmailService </title>
<path fill="none" stroke="black" stroke-dasharray="5,2" d="M1204.13,-174C1296.45,-174 1441,-174 1441,-174 1441,-174 1441,-227.8 1441,-227.8"/>
<polygon fill="black" stroke="black" points="1437.5,-227.8 1441,-237.8 1444.5,-227.8 1437.5,-227.8"/>
</g>
<!-- HealthModule -->
<g id="node3" class="node">
<title>HealthModule</title>
<polygon fill="#8dd3c7" stroke="black" points="1036.37,-198 1033.37,-202 1012.37,-202 1009.37,-198 939.63,-198 939.63,-162 1036.37,-162 1036.37,-198"/>
<text text-anchor="middle" x="988" y="-175.8" font-family="Times,serif" font-size="14.00">HealthModule</text>
</g>
<!-- HealthModule&#45;&gt;AppModule -->
<g id="edge3" class="edge">
<title>HealthModule&#45;&gt;AppModule</title>
<path fill="none" stroke="black" d="M974.7,-198.14C974.7,-198.14 974.7,-292.93 974.7,-292.93"/>
<polygon fill="black" stroke="black" points="971.2,-292.92 974.7,-302.93 978.2,-292.93 971.2,-292.92"/>
</g>
<!-- UserModule -->
<g id="node4" class="node">
<title>UserModule</title>
<polygon fill="#8dd3c7" stroke="black" points="921.98,-198 918.98,-202 897.98,-202 894.98,-198 836.02,-198 836.02,-162 921.98,-162 921.98,-198"/>
<text text-anchor="middle" x="879" y="-175.8" font-family="Times,serif" font-size="14.00">UserModule</text>
</g>
<!-- UserModule&#45;&gt;AuthModule -->
<g id="edge6" class="edge">
<title>UserModule&#45;&gt;AuthModule</title>
<path fill="none" stroke="black" d="M879.11,-198.01C879.11,-198.01 879.11,-227.85 879.11,-227.85"/>
<polygon fill="black" stroke="black" points="875.61,-227.85 879.11,-237.85 882.61,-227.85 875.61,-227.85"/>
</g>
<!-- UserModule&#45;&gt;AppModule -->
<g id="edge4" class="edge">
<title>UserModule&#45;&gt;AppModule</title>
<path fill="none" stroke="black" d="M922.09,-180C929.62,-180 935.1,-180 935.1,-180 935.1,-180 935.1,-292.86 935.1,-292.86"/>
<polygon fill="black" stroke="black" points="931.6,-292.86 935.1,-302.86 938.6,-292.86 931.6,-292.86"/>
</g>
<!-- UserService  -->
<g id="node13" class="node">
<title>UserService </title>
<polygon fill="#fb8072" stroke="black" points="1118.9,-122 1031.1,-122 1031.1,-86 1118.9,-86 1118.9,-122"/>
<text text-anchor="middle" x="1075" y="-99.8" font-family="Times,serif" font-size="14.00">UserService </text>
</g>
<!-- UserModule&#45;&gt;UserService  -->
<g id="edge14" class="edge">
<title>UserModule&#45;&gt;UserService </title>
<path fill="none" stroke="black" stroke-dasharray="5,2" d="M913.14,-161.97C913.14,-155.15 913.14,-149 913.14,-149 913.14,-149 1045.27,-149 1045.27,-149 1045.27,-149 1045.27,-132.04 1045.27,-132.04"/>
<polygon fill="black" stroke="black" points="1048.77,-132.04 1045.27,-122.04 1041.77,-132.04 1048.77,-132.04"/>
</g>
<!-- AuthService -->
<g id="node7" class="node">
<title>AuthService</title>
<ellipse fill="#fdb462" stroke="black" cx="623" cy="-180" rx="59.11" ry="18"/>
<text text-anchor="middle" x="623" y="-175.8" font-family="Times,serif" font-size="14.00">AuthService</text>
</g>
<!-- AuthService&#45;&gt;AuthModule -->
<g id="edge8" class="edge">
<title>AuthService&#45;&gt;AuthModule</title>
<path fill="none" stroke="black" d="M623,-198.03C623,-218.77 623,-250 623,-250 623,-250 826.4,-250 826.4,-250"/>
<polygon fill="black" stroke="black" points="826.4,-253.5 836.4,-250 826.4,-246.5 826.4,-253.5"/>
</g>
<!-- JwtMagicLinkStrategy -->
<g id="node8" class="node">
<title>JwtMagicLinkStrategy</title>
<ellipse fill="#fdb462" stroke="black" cx="446" cy="-180" rx="99.58" ry="18"/>
<text text-anchor="middle" x="446" y="-175.8" font-family="Times,serif" font-size="14.00">JwtMagicLinkStrategy</text>
</g>
<!-- JwtMagicLinkStrategy&#45;&gt;AuthModule -->
<g id="edge9" class="edge">
<title>JwtMagicLinkStrategy&#45;&gt;AuthModule</title>
<path fill="none" stroke="black" d="M446,-198.01C446,-220.49 446,-256 446,-256 446,-256 826.4,-256 826.4,-256"/>
<polygon fill="black" stroke="black" points="826.4,-259.5 836.4,-256 826.4,-252.5 826.4,-259.5"/>
</g>
<!-- JwtRefreshStrategy -->
<g id="node9" class="node">
<title>JwtRefreshStrategy</title>
<ellipse fill="#fdb462" stroke="black" cx="242" cy="-180" rx="86.81" ry="18"/>
<text text-anchor="middle" x="242" y="-175.8" font-family="Times,serif" font-size="14.00">JwtRefreshStrategy</text>
</g>
<!-- JwtRefreshStrategy&#45;&gt;AuthModule -->
<g id="edge10" class="edge">
<title>JwtRefreshStrategy&#45;&gt;AuthModule</title>
<path fill="none" stroke="black" d="M242,-198.2C242,-222.36 242,-262 242,-262 242,-262 826.15,-262 826.15,-262"/>
<polygon fill="black" stroke="black" points="826.15,-265.5 836.15,-262 826.15,-258.5 826.15,-265.5"/>
</g>
<!-- JwtStrategy -->
<g id="node10" class="node">
<title>JwtStrategy</title>
<ellipse fill="#fdb462" stroke="black" cx="81" cy="-180" rx="56.76" ry="18"/>
<text text-anchor="middle" x="81" y="-175.8" font-family="Times,serif" font-size="14.00">JwtStrategy</text>
</g>
<!-- JwtStrategy&#45;&gt;AuthModule -->
<g id="edge11" class="edge">
<title>JwtStrategy&#45;&gt;AuthModule</title>
<path fill="none" stroke="black" d="M81,-198.23C81,-224.01 81,-268 81,-268 81,-268 826.19,-268 826.19,-268"/>
<polygon fill="black" stroke="black" points="826.19,-271.5 836.19,-268 826.19,-264.5 826.19,-271.5"/>
</g>
<!-- EmailService -->
<g id="node12" class="node">
<title>EmailService</title>
<ellipse fill="#fdb462" stroke="black" cx="1307" cy="-256" rx="63.12" ry="18"/>
<text text-anchor="middle" x="1307" y="-251.8" font-family="Times,serif" font-size="14.00">EmailService</text>
</g>
<!-- EmailService&#45;&gt;CommunicationModule -->
<g id="edge13" class="edge">
<title>EmailService&#45;&gt;CommunicationModule</title>
<path fill="none" stroke="black" d="M1307,-237.97C1307,-217.23 1307,-186 1307,-186 1307,-186 1213.97,-186 1213.97,-186"/>
<polygon fill="black" stroke="black" points="1213.97,-182.5 1203.97,-186 1213.97,-189.5 1213.97,-182.5"/>
</g>
<!-- UserProfile -->
<g id="node14" class="node">
<title>UserProfile</title>
<ellipse fill="#fdb462" stroke="black" cx="951" cy="-104" rx="55.59" ry="18"/>
<text text-anchor="middle" x="951" y="-99.8" font-family="Times,serif" font-size="14.00">UserProfile</text>
</g>
<!-- UserProfile&#45;&gt;UserModule -->
<g id="edge15" class="edge">
<title>UserProfile&#45;&gt;UserModule</title>
<path fill="none" stroke="black" d="M904.3,-113.94C904.3,-113.94 904.3,-151.91 904.3,-151.91"/>
<polygon fill="black" stroke="black" points="900.8,-151.91 904.3,-161.91 907.8,-151.91 900.8,-151.91"/>
</g>
<!-- UserRepository -->
<g id="node15" class="node">
<title>UserRepository</title>
<ellipse fill="#fdb462" stroke="black" cx="806" cy="-104" rx="71.79" ry="18"/>
<text text-anchor="middle" x="806" y="-99.8" font-family="Times,serif" font-size="14.00">UserRepository</text>
</g>
<!-- UserRepository&#45;&gt;UserModule -->
<g id="edge16" class="edge">
<title>UserRepository&#45;&gt;UserModule</title>
<path fill="none" stroke="black" d="M863.77,-114.89C863.77,-114.89 863.77,-151.79 863.77,-151.79"/>
<polygon fill="black" stroke="black" points="860.27,-151.79 863.77,-161.79 867.27,-151.79 860.27,-151.79"/>
</g>
<!-- UserService -->
<g id="node16" class="node">
<title>UserService</title>
<ellipse fill="#fdb462" stroke="black" cx="658" cy="-104" rx="58.44" ry="18"/>
<text text-anchor="middle" x="658" y="-99.8" font-family="Times,serif" font-size="14.00">UserService</text>
</g>
<!-- UserService&#45;&gt;UserModule -->
<g id="edge17" class="edge">
<title>UserService&#45;&gt;UserModule</title>
<path fill="none" stroke="black" d="M711.24,-111.42C711.24,-120.88 711.24,-136 711.24,-136 711.24,-136 849.89,-136 849.89,-136 849.89,-136 849.89,-151.85 849.89,-151.85"/>
<polygon fill="black" stroke="black" points="846.39,-151.85 849.89,-161.85 853.39,-151.85 846.39,-151.85"/>
</g>
</g>
</svg>
