<?xml version="1.0" encoding="UTF-8" standalone="no"?>
<!DOCTYPE svg PUBLIC "-//W3C//DTD SVG 1.1//EN"
 "http://www.w3.org/Graphics/SVG/1.1/DTD/svg11.dtd">
<!-- Generated by graphviz version 2.47.0 (20210316.0004)
 -->
<!-- Title: dependencies Pages: 1 -->
<svg width="504pt" height="284pt"
 viewBox="0.00 0.00 504.00 284.00" xmlns="http://www.w3.org/2000/svg" xmlns:xlink="http://www.w3.org/1999/xlink">
<g id="graph0" class="graph" transform="scale(1 1) rotate(0) translate(4 280)">
<title>dependencies</title>
<polygon fill="white" stroke="transparent" points="-4,4 -4,-280 500,-280 500,4 -4,4"/>
<text text-anchor="start" x="227.01" y="-42.4" font-family="Times-12" font-weight="bold" font-size="14.00">Legend</text>
<polygon fill="#ffffb3" stroke="transparent" points="14,-10 14,-30 34,-30 34,-10 14,-10"/>
<text text-anchor="start" x="37.63" y="-15.4" font-family="Times-12" font-size="14.00"> &#160;Declarations</text>
<polygon fill="#8dd3c7" stroke="transparent" points="127,-10 127,-30 147,-30 147,-10 127,-10"/>
<text text-anchor="start" x="150.73" y="-15.4" font-family="Times-12" font-size="14.00"> &#160;Module</text>
<polygon fill="#80b1d3" stroke="transparent" points="213,-10 213,-30 233,-30 233,-10 213,-10"/>
<text text-anchor="start" x="236.78" y="-15.4" font-family="Times-12" font-size="14.00"> &#160;Bootstrap</text>
<polygon fill="#fdb462" stroke="transparent" points="310,-10 310,-30 330,-30 330,-10 310,-10"/>
<text text-anchor="start" x="333.67" y="-15.4" font-family="Times-12" font-size="14.00"> &#160;Providers</text>
<polygon fill="#fb8072" stroke="transparent" points="406,-10 406,-30 426,-30 426,-10 406,-10"/>
<text text-anchor="start" x="429.73" y="-15.4" font-family="Times-12" font-size="14.00"> &#160;Exports</text>
<g id="clust1" class="cluster">
<title>cluster_UserModule</title>
<polygon fill="none" stroke="black" stroke-dasharray="1,5" points="28.5,-70 28.5,-268 467.5,-268 467.5,-70 28.5,-70"/>
</g>
<g id="clust4" class="cluster">
<title>cluster_UserModule_exports</title>
<polygon fill="none" stroke="black" points="198.5,-208 198.5,-260 302.5,-260 302.5,-208 198.5,-208"/>
</g>
<g id="clust6" class="cluster">
<title>cluster_UserModule_providers</title>
<polygon fill="none" stroke="black" points="36.5,-78 36.5,-130 459.5,-130 459.5,-78 36.5,-78"/>
</g>
<!-- UserService  -->
<g id="node1" class="node">
<title>UserService </title>
<polygon fill="#fb8072" stroke="black" points="294.4,-252 206.6,-252 206.6,-216 294.4,-216 294.4,-252"/>
<text text-anchor="middle" x="250.5" y="-229.8" font-family="Times,serif" font-size="14.00">UserService </text>
</g>
<!-- UserModule -->
<g id="node2" class="node">
<title>UserModule</title>
<polygon fill="#8dd3c7" stroke="black" points="293.48,-187 290.48,-191 269.48,-191 266.48,-187 207.52,-187 207.52,-151 293.48,-151 293.48,-187"/>
<text text-anchor="middle" x="250.5" y="-164.8" font-family="Times,serif" font-size="14.00">UserModule</text>
</g>
<!-- UserModule&#45;&gt;UserService  -->
<g id="edge1" class="edge">
<title>UserModule&#45;&gt;UserService </title>
<path fill="none" stroke="black" stroke-dasharray="5,2" d="M250.5,-187.11C250.5,-187.11 250.5,-205.99 250.5,-205.99"/>
<polygon fill="black" stroke="black" points="247,-205.99 250.5,-215.99 254,-205.99 247,-205.99"/>
</g>
<!-- UserProfile -->
<g id="node3" class="node">
<title>UserProfile</title>
<ellipse fill="#fdb462" stroke="black" cx="395.5" cy="-104" rx="55.59" ry="18"/>
<text text-anchor="middle" x="395.5" y="-99.8" font-family="Times,serif" font-size="14.00">UserProfile</text>
</g>
<!-- UserProfile&#45;&gt;UserModule -->
<g id="edge2" class="edge">
<title>UserProfile&#45;&gt;UserModule</title>
<path fill="none" stroke="black" d="M395.5,-122.11C395.5,-141.34 395.5,-169 395.5,-169 395.5,-169 303.61,-169 303.61,-169"/>
<polygon fill="black" stroke="black" points="303.61,-165.5 293.61,-169 303.61,-172.5 303.61,-165.5"/>
</g>
<!-- UserRepository -->
<g id="node4" class="node">
<title>UserRepository</title>
<ellipse fill="#fdb462" stroke="black" cx="250.5" cy="-104" rx="71.79" ry="18"/>
<text text-anchor="middle" x="250.5" y="-99.8" font-family="Times,serif" font-size="14.00">UserRepository</text>
</g>
<!-- UserRepository&#45;&gt;UserModule -->
<g id="edge3" class="edge">
<title>UserRepository&#45;&gt;UserModule</title>
<path fill="none" stroke="black" d="M250.5,-122.11C250.5,-122.11 250.5,-140.99 250.5,-140.99"/>
<polygon fill="black" stroke="black" points="247,-140.99 250.5,-150.99 254,-140.99 247,-140.99"/>
</g>
<!-- UserService -->
<g id="node5" class="node">
<title>UserService</title>
<ellipse fill="#fdb462" stroke="black" cx="102.5" cy="-104" rx="58.44" ry="18"/>
<text text-anchor="middle" x="102.5" y="-99.8" font-family="Times,serif" font-size="14.00">UserService</text>
</g>
<!-- UserService&#45;&gt;UserModule -->
<g id="edge4" class="edge">
<title>UserService&#45;&gt;UserModule</title>
<path fill="none" stroke="black" d="M102.5,-122.11C102.5,-141.34 102.5,-169 102.5,-169 102.5,-169 197.29,-169 197.29,-169"/>
<polygon fill="black" stroke="black" points="197.29,-172.5 207.29,-169 197.29,-165.5 197.29,-172.5"/>
</g>
</g>
</svg>
